<svg width="914" height="400" fill="none" xmlns="http://www.w3.org/2000/svg"><style>#CL0 {fill: #333;}@media (prefers-color-scheme: dark) {#CL0 {fill: #CCC;}}</style><path d="M423.443 212h-5.578l-5.715-8.518c-.11-.164-.283-.524-.52-1.08h-.068V212h-4.416v-19.605h4.416v9.269h.068c.11-.255.292-.62.547-1.094l5.414-8.175h5.264l-6.836 9.351L423.443 212Zm18.963 0h-4.457l-8.08-12.318c-.474-.72-.802-1.263-.984-1.627h-.055c.073.692.109 1.75.109 3.172V212h-4.17v-19.605h4.758l7.779 11.935c.356.538.684 1.071.985 1.6h.055c-.073-.456-.11-1.354-.11-2.694v-10.841h4.17V212Zm15.258-16.01h-6.918v4.813h6.358v3.582h-6.358V212h-4.416v-19.605h11.334v3.595Zm20.752 14.656c-2.015 1.131-4.148 1.696-6.399 1.696-1.422 0-2.698-.242-3.828-.725a8.41 8.41 0 0 1-2.885-2.037c-.793-.875-1.403-1.914-1.832-3.117-.419-1.212-.629-2.543-.629-3.992 0-.957.101-1.878.301-2.762.21-.884.511-1.714.902-2.488a9.803 9.803 0 0 1 1.463-2.106 9.213 9.213 0 0 1 1.969-1.627 9.627 9.627 0 0 1 2.461-1.052c.893-.247 1.855-.37 2.885-.37 1.941 0 3.673.347 5.195 1.039v2.01a10.996 10.996 0 0 0-5.414-1.394c-1.194 0-2.274.218-3.24.656a7.321 7.321 0 0 0-2.475 1.805c-.674.765-1.198 1.672-1.572 2.72-.374 1.039-.565 2.17-.574 3.391-.009 1.212.146 2.333.465 3.363.328 1.021.811 1.905 1.449 2.653a6.611 6.611 0 0 0 2.365 1.75c.939.419 2.023.629 3.254.629 1.659 0 3.099-.347 4.32-1.04v-5.974h-4.457v-1.654h6.276v8.626Zm4.526-5.332c.009.857.123 1.627.341 2.311.219.684.534 1.262.944 1.736.41.474.907.839 1.49 1.094.592.246 1.258.369 1.996.369 1.577 0 3.067-.551 4.471-1.654v1.723c-1.34.957-2.962 1.435-4.867 1.435-.939 0-1.791-.164-2.557-.492a5.33 5.33 0 0 1-1.955-1.422c-.538-.629-.953-1.399-1.244-2.31-.292-.912-.438-1.951-.438-3.118 0-1.048.16-2.019.479-2.912.319-.893.761-1.663 1.326-2.31a5.989 5.989 0 0 1 2.01-1.532 5.781 5.781 0 0 1 2.543-.56c.902 0 1.699.159 2.392.478a4.58 4.58 0 0 1 1.737 1.34c.473.584.834 1.295 1.08 2.133.246.839.369 1.777.369 2.816v.875h-10.117Zm8.312-1.531c-.027-1.458-.374-2.588-1.039-3.39-.665-.803-1.59-1.204-2.775-1.204-.593 0-1.144.105-1.655.315-.501.21-.943.515-1.326.916a4.886 4.886 0 0 0-.957 1.449 7.341 7.341 0 0 0-.519 1.914h8.271ZM505.378 212v-8.066c0-3.163-1.149-4.745-3.446-4.745a3.9 3.9 0 0 0-1.695.37 4.03 4.03 0 0 0-1.353.998c-.374.428-.67.938-.889 1.531a5.57 5.57 0 0 0-.315 1.9V212h-1.75v-14h1.75v2.434h.055c1.039-1.842 2.602-2.762 4.69-2.762 1.531 0 2.697.497 3.5 1.49.802.994 1.203 2.429 1.203 4.307V212h-1.75Z" id="CL0"/></svg>